<?xml version="1.0" encoding="utf-8"?><svg version="1.1" id="Layer_1" xmlns="http://www.w3.org/2000/svg" xmlns:xlink="http://www.w3.org/1999/xlink" x="0px" y="0px" viewBox="0 0 55.2 38.4" style="enable-background:new 0 0 55.2 38.4" xml:space="preserve"><style type="text/css">.st0{fill:#FE0000;} .st1{fill:#000095;} .st2{fill:#FFFFFF;}</style><g><path class="st0" d="M3.03,0h49.13c1.67,0,3.03,1.36,3.03,3.03v32.33c0,1.67-1.36,3.03-3.03,3.03H3.03C1.36,38.4,0,37.04,0,35.37 V3.03C0,1.36,1.36,0,3.03,0L3.03,0z"/><path class="st1" d="M0,19.2h19.05V0H3.03C1.36,0,0,1.36,0,3.03V19.2L0,19.2z"/><path class="st2" d="M10.72,6.38l-1.28,4.81L8.16,6.38l1.28-4.81L10.72,6.38L10.72,6.38z M9.44,7.66l4.81-1.28L9.44,5.1L4.63,6.38 L9.44,7.66L9.44,7.66z M9.44,7.66L9.44,7.66L9.44,7.66L9.44,7.66z"/><path class="st2" d="M10.55,7.02l-3.51,3.52l1.29-4.8l3.51-3.52L10.55,7.02L10.55,7.02z M8.8,7.49l4.8,1.29l-3.52-3.51l-4.8-1.29 L8.8,7.49L8.8,7.49z M8.8,7.49L8.8,7.49L8.8,7.49L8.8,7.49z"/><path class="st2" d="M10.08,7.49l-4.8,1.29L8.8,5.27l4.8-1.29L10.08,7.49L10.08,7.49z M8.33,7.02l3.51,3.52l-1.29-4.8L7.03,2.22 L8.33,7.02L8.33,7.02z M8.33,7.02L8.33,7.02L8.33,7.02L8.33,7.02z"/><path class="st1" d="M12.16,6.38c0-1.5-1.22-2.72-2.72-2.72c-1.5,0-2.72,1.22-2.72,2.72c0,1.5,1.22,2.72,2.72,2.72 C10.94,9.1,12.16,7.89,12.16,6.38L12.16,6.38z"/><path class="st2" d="M11.84,6.38c0-1.33-1.08-2.4-2.4-2.4c-1.33,0-2.4,1.08-2.4,2.4c0,1.33,1.08,2.4,2.4,2.4 C10.77,8.78,11.84,7.71,11.84,6.38L11.84,6.38z"/></g></svg>